<?xml version="1.0" encoding="utf-8"?>
<svg version="1.2" width="1024" height="1024" viewBox="0 0 1024 1024" baseProfile="tiny-ps" xmlns="http://www.w3.org/2000/svg">
  <title>logoacobee</title>
<path fill="#2D6A4F" stroke="none" d=" M639.229492,750.806030   C602.385925,721.543945 575.979980,685.324280 561.709778,640.663330   C559.486694,633.705933 554.661316,637.735901 551.047913,637.470886   C547.083496,637.180054 548.248962,640.831604 548.236328,643.073242   C548.071716,672.326538 553.683777,700.257080 567.452576,726.306335   C571.441833,733.853638 573.827271,742.013733 576.433838,750.095764   C577.304688,752.795959 576.584595,753.910706 573.997498,754.865845   C566.154236,757.761597 565.902466,757.797974 563.293274,749.667236   C558.798828,735.661804 551.269775,722.947327 546.223206,709.178894   C540.565186,693.742249 538.015076,677.715454 536.573181,661.409729   C535.837585,653.090759 535.679626,644.787048 535.697510,636.463928   C535.702332,634.205994 534.883118,632.817200 532.926697,631.645996   C506.907471,616.070435 500.387329,591.990479 503.447205,563.760498   C503.622009,562.148010 504.239441,560.483215 503.150360,558.878052   C500.937958,557.965271 499.376495,559.620117 497.637970,560.383057   C489.184662,564.092651 480.542236,567.049133 471.147034,566.557373   C455.133514,565.719482 443.604797,555.055847 440.688232,538.566589   C436.250244,513.475830 448.351929,486.734711 470.144897,473.447693   C471.269073,472.762238 472.335022,471.981293 473.862000,470.952484   C467.434631,457.394318 458.227692,447.114594 443.791046,442.089264   C432.014679,437.989990 419.806763,436.757538 407.463104,436.363281   C404.611176,436.272217 401.643555,436.856689 401.658234,432.374725   C401.670624,428.585785 401.786102,425.257111 406.768280,425.056183   C434.963715,423.919220 466.216492,430.475311 482.953003,462.109863   C485.735443,467.369141 488.926514,468.919952 494.502869,469.030701   C512.474915,469.387756 526.194336,477.043549 533.997925,493.808411   C537.083557,500.437439 537.895447,507.480072 537.518555,514.728088   C537.424500,516.536560 536.425476,519.492981 539.460266,519.391846   C542.409607,519.293579 546.469788,520.617249 547.868530,516.146423   C549.534912,510.820129 548.299072,505.575989 547.147644,500.373871   C542.322083,478.572662 528.652039,465.323334 507.137024,460.603455   C499.228882,458.868622 494.461823,454.960571 490.754944,447.967377   C484.972107,437.057648 478.089783,426.830322 467.729004,419.434235   C462.069885,415.394409 455.731079,412.950989 449.335968,410.591431   C444.480316,408.799866 441.557587,405.726990 439.618286,400.777374   C429.716003,375.504242 419.467316,350.366760 409.315521,325.191589   C408.769409,323.837250 408.003723,322.571472 406.641876,319.888763   C379.213989,392.858459 352.222168,464.668091 325.278992,536.348267   C328.037415,538.216431 330.265106,537.630249 332.350861,537.634094   C361.848877,537.688599 391.347443,537.760071 420.844757,537.609802   C425.523163,537.585938 427.688202,538.450562 428.704681,543.794189   C430.779175,554.700256 436.238922,564.315186 443.352051,572.851807   C441.892700,575.066895 439.879211,574.169312 438.205444,574.215454   C397.557526,575.336548 356.898682,575.190125 316.242096,575.060608   C312.373352,575.048279 310.608368,576.553711 309.342438,579.965576   C296.717529,613.991638 284.050201,648.002380 271.257324,681.965637   C266.024353,695.858398 260.907623,709.708069 260.868164,724.867371   C260.816803,744.596802 264.645782,760.739990 286.976410,769.454773   C297.145691,773.423462 307.708130,775.532532 318.292969,777.709778   C327.340454,779.570801 329.668121,783.241760 327.105042,792.072266   C326.395233,794.517700 324.786377,796.119629 322.172668,796.404053   C319.692902,796.673767 317.198364,796.972778 314.710083,796.974548   C259.880554,797.012878 205.051010,797.022949 150.221466,797.006592   C141.166107,797.003845 136.934921,790.626343 139.942917,781.784851   C140.653137,779.697205 142.465302,779.273132 144.154556,778.673401   C149.174484,776.891357 154.246704,775.254761 159.250900,773.430786   C178.221848,766.516174 190.573288,752.447754 199.724380,735.222595   C210.772537,714.426758 218.462982,692.182678 226.881531,670.270813   C266.297180,567.679749 305.635956,465.059052 344.984680,362.442261   C361.916138,318.286957 378.812744,274.118286 395.706238,229.948410   C398.622620,222.323181 399.520386,221.658478 407.739563,221.659073   C425.738403,221.660370 443.738831,221.791946 461.735168,221.579666   C467.083832,221.516602 469.986755,223.755798 471.876862,228.550842   C499.964050,299.805756 528.123413,371.032227 556.296753,442.253174   C557.241699,444.641937 557.503845,447.037598 557.480530,449.573273   C557.389893,459.404602 557.393738,469.236877 557.401672,479.068817   C557.403015,480.674347 557.063599,482.410309 558.613953,483.963257   C561.015503,482.334961 561.041138,479.648102 561.732544,477.398224   C574.817871,434.816376 590.710510,393.349121 610.693787,353.493225   C634.345581,306.320557 664.742859,264.385651 706.138123,231.080902   C724.190430,216.556839 743.848450,204.891953 766.319336,198.327728   C772.919006,196.399841 779.477356,196.417526 786.103821,196.962082   C794.127502,197.621490 799.001892,202.713913 802.087402,209.646454   C805.985168,218.404160 807.822388,227.697922 808.300049,237.236176   C809.682129,264.833740 805.119629,291.650696 797.086731,317.917084   C780.843933,371.029236 753.312256,417.502808 713.747681,456.528687   C682.911804,486.944733 647.236389,510.254822 606.973633,526.414612   C605.739807,526.909790 604.536011,527.486145 603.346313,528.080933   C602.941040,528.283508 602.622375,528.659302 601.900696,529.257019   C605.252869,529.821838 608.144287,529.265259 611.071350,529.135986   C656.375427,527.136047 698.654114,535.391602 734.187927,566.004944   C747.308350,577.308533 758.116882,590.564209 766.798950,605.544189   C768.556885,608.577271 770.045898,611.734680 770.296143,615.331299   C771.215637,628.541443 765.350586,634.793457 752.106750,635.350830   C727.577209,636.383301 704.136536,631.379578 681.223694,623.155396   C679.391479,622.497803 677.520935,621.946960 675.221313,622.012817   C678.962341,626.131226 682.819153,630.150940 686.425659,634.383911   C711.260254,663.532471 722.929443,697.297241 719.992188,735.456909   C718.813110,750.774963 717.218140,766.255432 712.663696,781.127808   C710.933167,786.778625 707.684875,791.569641 703.968262,796.165466   C701.565369,799.136719 699.363831,799.002808 696.755249,797.064209   C694.754456,795.577087 692.901550,793.887634 691.012512,792.253967   C674.367676,777.858154 657.161926,764.163635 639.229492,750.806030  M793.983826,272.701294   C796.224426,261.669189 795.705872,250.496323 795.726074,239.346405   C795.738525,232.451752 794.613037,225.747192 792.406128,219.253189   C789.237427,209.929153 785.319641,207.712723 775.423462,209.037491   C764.128845,210.549469 754.177246,215.596924 744.267090,220.731964   C712.995361,236.935715 688.792358,261.530334 665.656433,287.326599   C652.486877,302.010406 642.333069,318.905731 632.164001,335.644348   C616.488342,361.447021 604.226929,388.978485 593.315613,417.127045   C585.375122,437.611420 577.515991,458.105377 571.798950,479.350006   C571.252991,481.379059 570.027527,483.485443 572.737305,485.044312   C575.608765,486.696198 577.027405,484.554321 578.606262,482.902588   C580.586365,480.830933 581.986206,478.353546 583.124390,475.749512   C584.722046,472.094116 587.557922,469.866180 591.938843,467.629425   C590.758057,470.388184 590.130249,472.262878 589.194275,473.968384   C585.909729,479.953003 582.622253,485.940582 579.144104,491.813416   C574.055176,500.406006 568.778503,508.887238 563.625366,517.442139   C560.861389,522.030701 561.265991,522.963928 566.358765,524.120117   C570.303711,525.015747 574.947876,523.941040 577.793579,522.861206   C581.729797,521.367493 586.727844,520.281982 589.928650,516.514282   C591.172424,515.050171 593.721863,514.326233 591.905823,511.855255   C590.232178,509.578094 587.890503,509.557617 585.720276,511.112427   C583.131531,512.967163 580.964294,515.270752 579.445557,518.133606   C578.666565,519.602112 577.881287,521.228333 575.455383,519.949707   C575.884766,515.839966 579.621399,514.201416 581.868164,511.575592   C604.643921,484.958038 629.219543,460.085236 655.170532,436.568298   C657.799255,434.186157 660.432556,431.569489 664.367432,431.047638   C665.371643,433.944427 664.497009,436.985046 666.340759,439.437561   C670.559326,445.048981 669.613708,450.985535 667.185791,456.928802   C666.109802,459.562714 664.862671,462.037018 661.878784,463.196228   C656.631348,465.234772 652.792542,471.497192 653.206360,476.999084   C653.497742,480.871948 657.681030,485.572021 659.639526,484.077057   C665.063232,479.936981 671.980347,477.370544 674.550415,470.027740   C675.978760,465.946838 678.774414,463.318665 683.485229,462.326874   C686.927734,461.602203 690.447876,460.835266 693.543762,458.057220   C728.722717,426.489594 755.402893,388.911682 773.794067,345.443176   C783.555969,322.370361 790.804993,298.550018 793.983826,272.701294  M607.940918,574.495728   C612.372070,576.787231 616.809570,579.066528 621.233398,581.372192   C650.320007,596.532166 679.580750,611.245117 711.993408,618.236816   C722.582397,620.520935 733.286011,621.865173 744.081970,622.361450   C751.214966,622.689270 757.223938,614.771057 754.032166,609.448181   C735.832153,579.095764 710.001160,558.273376 676.274170,547.308105   C661.132690,542.385376 645.467041,540.559509 629.714722,539.487244   C618.925720,538.752747 608.099609,539.243408 597.332886,540.396301   C594.503662,540.699341 591.885925,542.046143 594.149231,545.208252   C600.447693,554.007751 603.680908,564.119324 607.940918,574.495728  M661.225098,643.670471   C655.490356,656.324951 645.153259,664.165222 633.302612,670.460815   C623.747009,675.537231 614.201721,680.620056 604.139832,684.661377   C600.841064,685.986328 598.435242,687.687805 601.656860,691.607788   C605.989258,696.879211 610.186218,702.268127 614.272644,707.732788   C616.270020,710.403748 618.362854,711.234192 621.524109,709.794556   C627.730530,706.968201 634.331421,704.883606 640.241821,701.555603   C656.867065,692.194153 670.488708,678.717590 685.741882,667.457153   C688.548401,665.385254 688.139526,662.636353 686.605591,659.863464   C682.961365,653.276123 678.706665,647.113159 673.553589,641.629578   C667.098816,634.760803 666.541931,634.882019 661.225098,643.670471  M602.813599,597.262939   C595.935364,608.741882 587.662537,619.344238 577.820251,628.160217   C570.965271,634.300537 572.171997,639.419067 575.029053,646.187439   C576.731201,650.219543 579.090271,650.693359 582.426147,649.030945   C595.581177,642.474915 607.910828,634.606445 618.533447,624.409546   C623.872864,619.284119 628.253418,613.256714 630.452087,605.694214   C623.934326,602.730774 619.044739,598.143250 613.545715,594.437866   C607.555542,590.401489 607.022217,590.478760 602.813599,597.262939  M672.601135,727.167725   C667.271118,730.253479 661.877441,733.235779 656.632385,736.459717   C652.838074,738.791809 652.758667,740.840393 655.916077,743.802979   C666.104492,753.362732 677.673035,754.437683 690.709045,750.561707   C698.093140,748.366272 701.958313,744.355164 703.014526,736.931580   C704.195618,728.629395 703.570251,720.321289 703.515564,712.013000   C703.509399,711.078796 703.306580,710.018311 701.997131,709.250305   C692.499939,715.038940 682.861450,720.913574 672.601135,727.167725  z" />
<path fill="#2D6A4F" stroke="none" d=" M653.648926,780.303589   C658.163696,784.015381 662.422363,787.474670 666.596191,791.033447   C667.735046,792.004395 668.740173,793.300415 668.184204,794.964355   C667.585876,796.754578 665.806030,796.542847 664.400452,796.774475   C663.096680,796.989258 661.747742,796.982605 660.418640,796.983459   C622.809021,797.007812 585.199341,797.032532 547.589722,797.026428   C539.107910,797.025085 534.242493,788.002136 538.542908,780.445312   C539.473267,778.810486 540.953125,778.773560 542.417603,778.833557   C563.311157,779.690002 582.076172,771.474854 601.288147,765.127380   C604.486389,764.070740 606.235413,761.576660 607.371399,758.896606   C609.195374,754.593506 611.443420,754.899780 615.115234,756.659058   C628.684998,763.160706 641.247559,771.242859 653.648926,780.303589  z" />
<path fill="#2D6A4F" stroke="none" d=" M626.444092,420.476746   C635.939514,405.908142 645.247009,391.651093 656.622314,378.269226   C659.061279,381.742218 658.981262,384.486633 658.181824,387.244843   C657.070435,391.079041 655.700623,394.839813 654.639282,398.686646   C652.727661,405.615051 654.195923,408.587708 659.942749,412.689240   C664.499329,415.941223 669.031799,417.662384 675.298523,414.432434   C673.893738,418.325287 671.542664,419.405853 669.626099,420.783173   C639.082214,442.733307 611.170166,467.587799 587.314697,496.719299   C581.820984,503.428009 574.890320,508.689697 569.856018,515.742493   C569.424927,516.346436 568.553284,516.635803 567.495605,516.761230   C584.436829,483.111877 606.529053,452.670624 626.444092,420.476746  z" />
<path fill="#2D6A4F" stroke="none" d=" M620.313599,419.256409   C618.872009,421.284882 617.607422,423.004669 616.342834,424.724487   C620.016296,412.905884 625.837097,402.051910 631.117859,391.053284   C636.486511,379.871490 647.492004,373.159698 656.731384,365.013428   C644.779541,383.120850 631.558594,400.319153 620.313599,419.256409  z" />
<path fill="#2D6A4F" stroke="none" d=" M697.614746,316.607056   C706.247986,308.236603 713.325745,298.359161 725.843750,295.641205   C706.943237,311.052460 689.815613,328.209351 673.231323,345.988647   C678.476379,333.931580 689.116882,326.383728 697.614746,316.607056  z" />
</svg>